<?xml version="1.0" standalone="no"?>

<svg xmlns="http://www.w3.org/2000/svg" width="1508" height="912" viewBox="0 0 1508 912" fill="none">
<rect width="1508" height="912" rx="28" fill="#F5F3F2"></rect>
<rect x="0.5" y="0.5" width="1507" height="911" rx="27.5" stroke="black" stroke-opacity="0.1"></rect>
<path d="M174.319 239.539L171.934 203.529C166.367 215.042 158.15 224.053 147.283 230.561C136.415 236.818 122.632 242.167 105.933 242.167C91.6196 242.167 79.4267 237.819 69.3543 233.564C59.2819 229.309 51.4625 223.302 45.8962 215.543C40.595 207.534 37.9443 198.148 37.9443 187.385C37.9443 171.616 44.1733 158.726 56.6313 148.714C69.0892 138.452 87.1135 132.195 110.704 129.942L171.934 123.56V108.542C171.934 98.0298 167.825 89.6449 159.608 83.3876C151.391 76.8799 140.259 73.6261 126.21 73.6261C112.427 73.6261 100.897 76.6296 91.6196 82.6367C82.6074 88.6438 76.3785 97.2789 72.9326 108.542L45.8962 99.5316C51.1975 83.0121 60.8723 70.122 74.9206 60.8611C89.234 51.6002 106.596 46.9697 127.005 46.9697C150.596 46.9697 168.885 52.7265 181.873 64.24C195.127 75.5033 201.753 90.8964 201.753 110.419V239.539H174.319ZM171.934 147.588L110.307 154.346C97.0534 155.848 86.981 159.352 80.0893 164.858C73.1977 170.115 69.7519 177.123 69.7519 185.883C69.7519 194.643 73.0652 201.652 79.6917 206.908C86.5834 212.164 96.3907 214.792 109.114 214.792C123.692 214.792 135.62 212.039 144.897 206.532C154.174 201.026 160.934 193.642 165.175 184.381C169.681 174.87 171.934 164.608 171.934 153.595V147.588Z" fill="#EBE3DB"></path>
<path d="M249.244 239.539L251.63 203.529C257.196 215.042 265.413 224.053 276.281 230.561C287.148 236.818 300.932 242.167 317.631 242.167C331.944 242.167 344.137 237.819 354.209 233.564C364.282 229.309 372.101 223.302 377.667 215.543C382.969 207.534 385.619 198.148 385.619 187.385C385.619 171.616 379.39 158.726 366.932 148.714C354.474 138.452 336.45 132.195 312.86 129.942L251.63 123.56V108.542C251.63 98.0298 255.739 89.6449 263.955 83.3876C272.172 76.8799 283.305 73.6261 297.353 73.6261C311.137 73.6261 322.667 76.6296 331.944 82.6367C340.956 88.6438 347.185 97.2789 350.631 108.542L377.667 99.5316C372.366 83.0121 362.691 70.122 348.643 60.8611C334.33 51.6002 316.968 46.9697 296.558 46.9697C272.968 46.9697 254.678 52.7265 241.69 64.24C228.437 75.5033 221.81 90.8964 221.81 110.419V239.539H249.244ZM251.63 147.588L313.257 154.346C326.51 155.848 336.583 159.352 343.474 164.858C350.366 170.115 353.812 177.123 353.812 185.883C353.812 194.643 350.498 201.652 343.872 206.908C336.98 212.164 327.173 214.792 314.45 214.792C299.871 214.792 287.944 212.039 278.666 206.532C269.389 201.026 262.63 193.642 258.389 184.381C253.883 174.87 251.63 164.608 251.63 153.595V147.588Z" fill="#EBE3DB"></path>
<path d="M174.319 258.896L171.934 292.686C166.367 281.172 158.15 272.161 147.283 265.654C136.415 259.396 122.632 258.519 105.933 258.519C91.6196 258.519 79.4267 258.395 69.3543 262.65C59.2819 266.905 51.4625 272.912 45.8962 280.671C40.595 288.681 37.9443 298.067 37.9443 308.83C37.9443 324.598 44.1733 337.488 56.6313 347.5C69.0892 357.762 87.1135 364.019 110.704 366.272L171.934 372.655V387.672C171.934 398.185 167.825 406.57 159.608 412.827C151.391 419.335 140.259 422.588 126.21 422.588C112.427 422.588 100.897 419.585 91.6196 413.578C82.6074 407.571 76.3785 398.936 72.9326 387.672L45.8962 396.683C51.1975 413.202 60.8723 426.093 74.9206 435.353C89.234 444.614 106.596 449.245 127.005 449.245C150.596 449.245 168.885 443.488 181.873 431.974C195.127 420.711 201.753 405.318 201.753 385.795V258.896H174.319ZM171.934 348.626L110.307 341.868C97.0534 340.367 86.981 336.863 80.0893 331.356C73.1977 326.1 69.7519 319.092 69.7519 310.331C69.7519 301.571 73.0652 294.563 79.6917 289.307C86.5834 284.05 96.3907 281.422 109.114 281.422C123.692 281.422 135.62 284.176 144.897 289.682C154.174 295.189 160.934 302.572 165.175 311.833C169.681 321.344 171.934 331.606 171.934 342.619V348.626Z" fill="#EBE3DB"></path>
<path d="M249.244 258.896L251.63 292.686C257.196 281.172 265.413 272.161 276.281 265.654C287.148 259.396 300.932 258.519 317.631 258.519C331.944 258.519 344.137 258.395 354.209 262.65C364.282 266.905 372.101 272.912 377.667 280.671C382.969 288.681 385.619 298.067 385.619 308.83C385.619 324.598 379.39 337.488 366.932 347.5C354.474 357.762 336.45 364.019 312.86 366.272L251.63 372.655V387.672C251.63 398.185 255.739 406.57 263.955 412.827C272.172 419.335 283.305 422.588 297.353 422.588C311.137 422.588 322.667 419.585 331.944 413.578C340.956 407.571 347.185 398.936 350.631 387.672L377.667 396.683C372.366 413.202 362.691 426.093 348.643 435.353C334.33 444.614 316.968 449.245 296.558 449.245C272.968 449.245 254.678 443.488 241.69 431.974C228.437 420.711 221.81 405.318 221.81 385.795V258.896H249.244ZM251.63 348.626L313.257 341.868C326.51 340.367 336.583 336.863 343.474 331.356C350.366 326.1 353.812 319.092 353.812 310.331C353.812 301.571 350.498 294.563 343.872 289.307C336.98 284.05 327.173 281.422 314.45 281.422C299.871 281.422 287.944 284.176 278.666 289.682C269.389 295.189 262.63 302.572 258.389 311.833C253.883 321.344 251.63 331.606 251.63 342.619V348.626Z" fill="#EBE3DB"></path>
<path d="M535.505 239.539L533.119 203.529C527.553 215.042 519.336 224.053 508.468 230.561C497.601 236.818 483.817 242.167 467.119 242.167C452.805 242.167 440.612 237.819 430.54 233.564C420.467 229.309 412.648 223.302 407.082 215.543C401.781 207.534 399.13 198.148 399.13 187.385C399.13 171.616 405.359 158.726 417.817 148.714C430.275 138.452 448.299 132.195 471.89 129.942L533.119 123.56V108.542C533.119 98.0298 529.011 89.6449 520.794 83.3876C512.577 76.8799 501.444 73.6261 487.396 73.6261C473.613 73.6261 462.082 76.6296 452.805 82.6367C443.793 88.6438 437.564 97.2789 434.118 108.542L407.082 99.5316C412.383 83.0121 422.058 70.122 436.106 60.8611C450.42 51.6002 467.781 46.9697 488.191 46.9697C511.782 46.9697 530.071 52.7265 543.059 64.24C556.312 75.5033 562.939 90.8964 562.939 110.419V239.539H535.505ZM533.119 147.588L471.492 154.346C458.239 155.848 448.167 159.352 441.275 164.858C434.383 170.115 430.937 177.123 430.937 185.883C430.937 194.643 434.251 201.652 440.877 206.908C447.769 212.164 457.576 214.792 470.299 214.792C484.878 214.792 496.806 212.039 506.083 206.532C515.36 201.026 522.119 193.642 526.36 184.381C530.866 174.87 533.119 164.608 533.119 153.595V147.588Z" fill="#EBE3DB"></path>
<path d="M610.43 239.539L612.816 203.529C618.382 215.042 626.599 224.053 637.466 230.561C648.334 236.818 662.117 242.167 678.816 242.167C693.13 242.167 705.323 237.819 715.395 233.564C725.467 229.309 733.287 223.302 738.853 215.543C744.154 207.534 746.805 198.148 746.805 187.385C746.805 171.616 740.576 158.726 728.118 148.714C715.66 138.452 697.636 132.195 674.045 129.942L612.816 123.56V108.542C612.816 98.0298 616.924 89.6449 625.141 83.3876C633.358 76.8799 644.491 73.6261 658.539 73.6261C672.322 73.6261 683.852 76.6296 693.13 82.6367C702.142 88.6438 708.371 97.2789 711.817 108.542L738.853 99.5316C733.552 83.0121 723.877 70.122 709.829 60.8611C695.515 51.6002 678.154 46.9697 657.744 46.9697C634.153 46.9697 615.864 52.7265 602.876 64.24C589.623 75.5033 582.996 90.8964 582.996 110.419V239.539H610.43ZM612.816 147.588L674.443 154.346C687.696 155.848 697.768 159.352 704.66 164.858C711.552 170.115 714.997 177.123 714.997 185.883C714.997 194.643 711.684 201.652 705.057 206.908C698.166 212.164 688.358 214.792 675.635 214.792C661.057 214.792 649.129 212.039 639.852 206.532C630.575 201.026 623.816 193.642 619.575 184.381C615.069 174.87 612.816 164.608 612.816 153.595V147.588Z" fill="#EBE3DB"></path>
<path d="M535.505 258.896L533.119 292.686C527.553 281.172 519.336 272.161 508.468 265.654C497.601 259.396 483.817 258.519 467.119 258.519C452.805 258.519 440.612 258.395 430.54 262.65C420.467 266.905 412.648 272.912 407.082 280.671C401.781 288.681 399.13 298.067 399.13 308.83C399.13 324.598 405.359 337.488 417.817 347.5C430.275 357.762 448.299 364.019 471.89 366.272L533.119 372.655V387.672C533.119 398.185 529.011 406.57 520.794 412.827C512.577 419.335 501.444 422.588 487.396 422.588C473.613 422.588 462.082 419.585 452.805 413.578C443.793 407.571 437.564 398.936 434.118 387.672L407.082 396.683C412.383 413.202 422.058 426.093 436.106 435.353C450.42 444.614 467.781 449.245 488.191 449.245C511.782 449.245 530.071 443.488 543.059 431.974C556.312 420.711 562.939 405.318 562.939 385.795V258.896H535.505ZM533.119 348.626L471.492 341.868C458.239 340.367 448.167 336.863 441.275 331.356C434.383 326.1 430.937 319.092 430.937 310.331C430.937 301.571 434.251 294.563 440.877 289.307C447.769 284.05 457.576 281.422 470.299 281.422C484.878 281.422 496.806 284.176 506.083 289.682C515.36 295.189 522.119 302.572 526.36 311.833C530.866 321.344 533.119 331.606 533.119 342.619V348.626Z" fill="#EBE3DB"></path>
<path d="M610.43 258.896L612.816 292.686C618.382 281.172 626.599 272.161 637.466 265.654C648.334 259.396 662.117 258.519 678.816 258.519C693.13 258.519 705.323 258.395 715.395 262.65C725.467 266.905 733.287 272.912 738.853 280.671C744.154 288.681 746.805 298.067 746.805 308.83C746.805 324.598 740.576 337.488 728.118 347.5C715.66 357.762 697.636 364.019 674.045 366.272L612.816 372.655V387.672C612.816 398.185 616.924 406.57 625.141 412.827C633.358 419.335 644.491 422.588 658.539 422.588C672.322 422.588 683.852 419.585 693.13 413.578C702.142 407.571 708.371 398.936 711.817 387.672L738.853 396.683C733.552 413.202 723.877 426.093 709.829 435.353C695.515 444.614 678.154 449.245 657.744 449.245C634.153 449.245 615.864 443.488 602.876 431.974C589.623 420.711 582.996 405.318 582.996 385.795V258.896H610.43ZM612.816 348.626L674.443 341.868C687.696 340.367 697.768 336.863 704.66 331.356C711.552 326.1 714.997 319.092 714.997 310.331C714.997 301.571 711.684 294.563 705.057 289.307C698.166 284.05 688.358 281.422 675.635 281.422C661.057 281.422 649.129 284.176 639.852 289.682C630.575 295.189 623.816 302.572 619.575 311.833C615.069 321.344 612.816 331.606 612.816 342.619V348.626Z" fill="#EBE3DB"></path>
<path d="M896.69 239.539L894.305 203.529C888.738 215.042 880.521 224.053 869.654 230.561C858.786 236.818 845.003 242.167 828.304 242.167C813.991 242.167 801.798 237.819 791.725 233.564C781.653 229.309 773.834 223.302 768.267 215.543C762.966 207.534 760.315 198.148 760.315 187.385C760.315 171.616 766.544 158.726 779.002 148.714C791.46 138.452 809.485 132.195 833.075 129.942L894.305 123.56V108.542C894.305 98.0298 890.196 89.6449 881.979 83.3876C873.762 76.8799 862.63 73.6261 848.581 73.6261C834.798 73.6261 823.268 76.6296 813.991 82.6367C804.979 88.6438 798.75 97.2789 795.304 108.542L768.267 99.5316C773.569 83.0121 783.243 70.122 797.292 60.8611C811.605 51.6002 828.967 46.9697 849.377 46.9697C872.967 46.9697 891.256 52.7265 904.245 64.24C917.498 75.5033 924.124 90.8964 924.124 110.419V239.539H896.69ZM894.305 147.588L832.678 154.346C819.424 155.848 809.352 159.352 802.46 164.858C795.569 170.115 792.123 177.123 792.123 185.883C792.123 194.643 795.436 201.652 802.063 206.908C808.954 212.164 818.762 214.792 831.485 214.792C846.063 214.792 857.991 212.039 867.268 206.532C876.545 201.026 883.305 193.642 887.546 184.381C892.052 174.87 894.305 164.608 894.305 153.595V147.588Z" fill="#EBE3DB"></path>
<path d="M971.616 239.539L974.001 203.529C979.567 215.042 987.784 224.053 998.652 230.561C1009.52 236.818 1023.3 242.167 1040 242.167C1054.32 242.167 1066.51 237.819 1076.58 233.564C1086.65 229.309 1094.47 223.302 1100.04 215.543C1105.34 207.534 1107.99 198.148 1107.99 187.385C1107.99 171.616 1101.76 158.726 1089.3 148.714C1076.85 138.452 1058.82 132.195 1035.23 129.942L974.001 123.56V108.542C974.001 98.0298 978.11 89.6449 986.327 83.3876C994.544 76.8799 1005.68 73.6261 1019.72 73.6261C1033.51 73.6261 1045.04 76.6296 1054.32 82.6367C1063.33 88.6438 1069.56 97.2789 1073 108.542L1100.04 99.5316C1094.74 83.0121 1085.06 70.122 1071.01 60.8611C1056.7 51.6002 1039.34 46.9697 1018.93 46.9697C995.339 46.9697 977.049 52.7265 964.061 64.24C950.808 75.5033 944.182 90.8964 944.182 110.419V239.539H971.616ZM974.001 147.588L1035.63 154.346C1048.88 155.848 1058.95 159.352 1065.85 164.858C1072.74 170.115 1076.18 177.123 1076.18 185.883C1076.18 194.643 1072.87 201.652 1066.24 206.908C1059.35 212.164 1049.54 214.792 1036.82 214.792C1022.24 214.792 1010.31 212.039 1001.04 206.532C991.76 201.026 985.001 193.642 980.76 184.381C976.254 174.87 974.001 164.608 974.001 153.595V147.588Z" fill="#EBE3DB"></path>
<path d="M896.69 258.896L894.305 292.686C888.738 281.172 880.521 272.161 869.654 265.654C858.786 259.396 845.003 258.519 828.304 258.519C813.991 258.519 801.798 258.395 791.725 262.65C781.653 266.905 773.834 272.912 768.267 280.671C762.966 288.681 760.315 298.067 760.315 308.83C760.315 324.598 766.544 337.488 779.002 347.5C791.46 357.762 809.485 364.019 833.075 366.272L894.305 372.655V387.672C894.305 398.185 890.196 406.57 881.979 412.827C873.762 419.335 862.63 422.588 848.581 422.588C834.798 422.588 823.268 419.585 813.991 413.578C804.979 407.571 798.75 398.936 795.304 387.672L768.267 396.683C773.569 413.202 783.243 426.093 797.292 435.353C811.605 444.614 828.967 449.245 849.377 449.245C872.967 449.245 891.256 443.488 904.245 431.974C917.498 420.711 924.124 405.318 924.124 385.795V258.896H896.69ZM894.305 348.626L832.678 341.868C819.424 340.367 809.352 336.863 802.46 331.356C795.569 326.1 792.123 319.092 792.123 310.331C792.123 301.571 795.436 294.563 802.063 289.307C808.954 284.05 818.762 281.422 831.485 281.422C846.063 281.422 857.991 284.176 867.268 289.682C876.545 295.189 883.305 302.572 887.546 311.833C892.052 321.344 894.305 331.606 894.305 342.619V348.626Z" fill="#EBE3DB"></path>
<path d="M971.616 258.896L974.001 292.686C979.567 281.172 987.784 272.161 998.652 265.654C1009.52 259.396 1023.3 258.519 1040 258.519C1054.32 258.519 1066.51 258.395 1076.58 262.65C1086.65 266.905 1094.47 272.912 1100.04 280.671C1105.34 288.681 1107.99 298.067 1107.99 308.83C1107.99 324.598 1101.76 337.488 1089.3 347.5C1076.85 357.762 1058.82 364.019 1035.23 366.272L974.001 372.655V387.672C974.001 398.185 978.11 406.57 986.327 412.827C994.544 419.335 1005.68 422.588 1019.72 422.588C1033.51 422.588 1045.04 419.585 1054.32 413.578C1063.33 407.571 1069.56 398.936 1073 387.672L1100.04 396.683C1094.74 413.202 1085.06 426.093 1071.01 435.353C1056.7 444.614 1039.34 449.245 1018.93 449.245C995.339 449.245 977.049 443.488 964.061 431.974C950.808 420.711 944.182 405.318 944.182 385.795V258.896H971.616ZM974.001 348.626L1035.63 341.868C1048.88 340.367 1058.95 336.863 1065.85 331.356C1072.74 326.1 1076.18 319.092 1076.18 310.331C1076.18 301.571 1072.87 294.563 1066.24 289.307C1059.35 284.05 1049.54 281.422 1036.82 281.422C1022.24 281.422 1010.31 284.176 1001.04 289.682C991.76 295.189 985.001 302.572 980.76 311.833C976.254 321.344 974.001 331.606 974.001 342.619V348.626Z" fill="#EBE3DB"></path>
<path d="M1257.88 239.539L1255.49 203.529C1249.92 215.042 1241.71 224.053 1230.84 230.561C1219.97 236.818 1206.19 242.167 1189.49 242.167C1175.18 242.167 1162.98 237.819 1152.91 233.564C1142.84 229.309 1135.02 223.302 1129.45 215.543C1124.15 207.534 1121.5 198.148 1121.5 187.385C1121.5 171.616 1127.73 158.726 1140.19 148.714C1152.65 138.452 1170.67 132.195 1194.26 129.942L1255.49 123.56V108.542C1255.49 98.0298 1251.38 89.6449 1243.16 83.3876C1234.95 76.8799 1223.82 73.6261 1209.77 73.6261C1195.98 73.6261 1184.45 76.6296 1175.18 82.6367C1166.16 88.6438 1159.94 97.2789 1156.49 108.542L1129.45 99.5316C1134.75 83.0121 1144.43 70.122 1158.48 60.8611C1172.79 51.6002 1190.15 46.9697 1210.56 46.9697C1234.15 46.9697 1252.44 52.7265 1265.43 64.24C1278.68 75.5033 1285.31 90.8964 1285.31 110.419V239.539H1257.88ZM1255.49 147.588L1193.86 154.346C1180.61 155.848 1170.54 159.352 1163.65 164.858C1156.75 170.115 1153.31 177.123 1153.31 185.883C1153.31 194.643 1156.62 201.652 1163.25 206.908C1170.14 212.164 1179.95 214.792 1192.67 214.792C1207.25 214.792 1219.18 212.039 1228.45 206.532C1237.73 201.026 1244.49 193.642 1248.73 184.381C1253.24 174.87 1255.49 164.608 1255.49 153.595V147.588Z" fill="#EBE3DB"></path>
<path d="M1332.8 239.539L1335.19 203.529C1340.75 215.042 1348.97 224.053 1359.84 230.561C1370.71 236.818 1384.49 242.167 1401.19 242.167C1415.5 242.167 1427.69 237.819 1437.77 233.564C1447.84 229.309 1455.66 223.302 1461.22 215.543C1466.53 207.534 1469.18 198.148 1469.18 187.385C1469.18 171.616 1462.95 158.726 1450.49 148.714C1438.03 138.452 1420.01 132.195 1396.42 129.942L1335.19 123.56V108.542C1335.19 98.0298 1339.3 89.6449 1347.51 83.3876C1355.73 76.8799 1366.86 73.6261 1380.91 73.6261C1394.69 73.6261 1406.22 76.6296 1415.5 82.6367C1424.51 88.6438 1430.74 97.2789 1434.19 108.542L1461.22 99.5316C1455.92 83.0121 1446.25 70.122 1432.2 60.8611C1417.89 51.6002 1400.52 46.9697 1380.11 46.9697C1356.52 46.9697 1338.23 52.7265 1325.25 64.24C1311.99 75.5033 1305.37 90.8964 1305.37 110.419V239.539H1332.8ZM1335.19 147.588L1396.81 154.346C1410.07 155.848 1420.14 159.352 1427.03 164.858C1433.92 170.115 1437.37 177.123 1437.37 185.883C1437.37 194.643 1434.06 201.652 1427.43 206.908C1420.54 212.164 1410.73 214.792 1398.01 214.792C1383.43 214.792 1371.5 212.039 1362.22 206.532C1352.95 201.026 1346.19 193.642 1341.95 184.381C1337.44 174.87 1335.19 164.608 1335.19 153.595V147.588Z" fill="#EBE3DB"></path>
<path d="M1257.88 258.896L1255.49 292.686C1249.92 281.172 1241.71 272.161 1230.84 265.654C1219.97 259.396 1206.19 258.519 1189.49 258.519C1175.18 258.519 1162.98 258.395 1152.91 262.65C1142.84 266.905 1135.02 272.912 1129.45 280.671C1124.15 288.681 1121.5 298.067 1121.5 308.83C1121.5 324.598 1127.73 337.488 1140.19 347.5C1152.65 357.762 1170.67 364.019 1194.26 366.272L1255.49 372.655V387.672C1255.49 398.185 1251.38 406.57 1243.16 412.827C1234.95 419.335 1223.82 422.588 1209.77 422.588C1195.98 422.588 1184.45 419.585 1175.18 413.578C1166.16 407.571 1159.94 398.936 1156.49 387.672L1129.45 396.683C1134.75 413.202 1144.43 426.093 1158.48 435.353C1172.79 444.614 1190.15 449.245 1210.56 449.245C1234.15 449.245 1252.44 443.488 1265.43 431.974C1278.68 420.711 1285.31 405.318 1285.31 385.795V258.896H1257.88ZM1255.49 348.626L1193.86 341.868C1180.61 340.367 1170.54 336.863 1163.65 331.356C1156.75 326.1 1153.31 319.092 1153.31 310.331C1153.31 301.571 1156.62 294.563 1163.25 289.307C1170.14 284.05 1179.95 281.422 1192.67 281.422C1207.25 281.422 1219.18 284.176 1228.45 289.682C1237.73 295.189 1244.49 302.572 1248.73 311.833C1253.24 321.344 1255.49 331.606 1255.49 342.619V348.626Z" fill="#EBE3DB"></path>
<path d="M1332.8 258.896L1335.19 292.686C1340.75 281.172 1348.97 272.161 1359.84 265.654C1370.71 259.396 1384.49 258.519 1401.19 258.519C1415.5 258.519 1427.69 258.395 1437.77 262.65C1447.84 266.905 1455.66 272.912 1461.22 280.671C1466.53 288.681 1469.18 298.067 1469.18 308.83C1469.18 324.598 1462.95 337.488 1450.49 347.5C1438.03 357.762 1420.01 364.019 1396.42 366.272L1335.19 372.655V387.672C1335.19 398.185 1339.3 406.57 1347.51 412.827C1355.73 419.335 1366.86 422.588 1380.91 422.588C1394.69 422.588 1406.22 419.585 1415.5 413.578C1424.51 407.571 1430.74 398.936 1434.19 387.672L1461.22 396.683C1455.92 413.202 1446.25 426.093 1432.2 435.353C1417.89 444.614 1400.52 449.245 1380.11 449.245C1356.52 449.245 1338.23 443.488 1325.25 431.974C1311.99 420.711 1305.37 405.318 1305.37 385.795V258.896H1332.8ZM1335.19 348.626L1396.81 341.868C1410.07 340.367 1420.14 336.863 1427.03 331.356C1433.92 326.1 1437.37 319.092 1437.37 310.331C1437.37 301.571 1434.06 294.563 1427.43 289.307C1420.54 284.05 1410.73 281.422 1398.01 281.422C1383.43 281.422 1371.5 284.176 1362.22 289.682C1352.95 295.189 1346.19 302.572 1341.95 311.833C1337.44 321.344 1335.19 331.606 1335.19 342.619V348.626Z" fill="#EBE3DB"></path>
<path d="M174.319 655.325L171.934 619.315C166.367 630.828 158.15 639.839 147.283 646.346C136.415 652.604 122.632 657.953 105.933 657.953C91.6196 657.953 79.4267 653.605 69.3543 649.35C59.2819 645.095 51.4625 639.088 45.8962 631.329C40.595 623.319 37.9443 613.933 37.9443 603.171C37.9443 587.402 44.1733 574.512 56.6313 564.5C69.0892 554.238 87.1135 547.981 110.704 545.728L171.934 539.345V524.328C171.934 513.815 167.825 505.431 159.608 499.173C151.391 492.666 140.259 489.412 126.21 489.412C112.427 489.412 100.897 492.415 91.6196 498.422C82.6074 504.429 76.3785 513.065 72.9326 524.328L45.8962 515.317C51.1975 498.798 60.8723 485.908 74.9206 476.647C89.234 467.386 106.596 462.755 127.005 462.755C150.596 462.755 168.885 468.512 181.873 480.026C195.127 491.289 201.753 506.682 201.753 526.205V655.325H174.319ZM171.934 563.374L110.307 570.132C97.0534 571.633 86.981 575.138 80.0893 580.644C73.1977 585.9 69.7519 592.908 69.7519 601.669C69.7519 610.429 73.0652 617.437 79.6917 622.694C86.5834 627.95 96.3907 630.578 109.114 630.578C123.692 630.578 135.62 627.825 144.897 622.318C154.174 616.812 160.934 609.428 165.175 600.167C169.681 590.656 171.934 580.394 171.934 569.381V563.374Z" fill="#EBE3DB"></path>
<path d="M249.244 655.325L251.63 619.315C257.196 630.828 265.413 639.839 276.281 646.346C287.148 652.604 300.932 657.953 317.631 657.953C331.944 657.953 344.137 653.605 354.209 649.35C364.282 645.095 372.101 639.088 377.667 631.329C382.969 623.319 385.619 613.933 385.619 603.171C385.619 587.402 379.39 574.512 366.932 564.5C354.474 554.238 336.45 547.981 312.86 545.728L251.63 539.345V524.328C251.63 513.815 255.739 505.431 263.955 499.173C272.172 492.666 283.305 489.412 297.353 489.412C311.137 489.412 322.667 492.415 331.944 498.422C340.956 504.429 347.185 513.065 350.631 524.328L377.667 515.317C372.366 498.798 362.691 485.908 348.643 476.647C334.33 467.386 316.968 462.755 296.558 462.755C272.968 462.755 254.678 468.512 241.69 480.026C228.437 491.289 221.81 506.682 221.81 526.205V655.325H249.244ZM251.63 563.374L313.257 570.132C326.51 571.633 336.583 575.138 343.474 580.644C350.366 585.9 353.812 592.908 353.812 601.669C353.812 610.429 350.498 617.437 343.872 622.694C336.98 627.95 327.173 630.578 314.45 630.578C299.871 630.578 287.944 627.825 278.666 622.318C269.389 616.812 262.63 609.428 258.389 600.167C253.883 590.656 251.63 580.394 251.63 569.381V563.374Z" fill="#EBE3DB"></path>
<path d="M174.319 674.681L171.934 708.471C166.367 696.958 158.15 687.947 147.283 681.439C136.415 675.182 122.632 674.305 105.933 674.305C91.6196 674.305 79.4267 674.181 69.3543 678.436C59.2819 682.691 51.4625 688.698 45.8962 696.457C40.595 704.467 37.9443 713.853 37.9443 724.615C37.9443 740.384 44.1733 753.274 56.6313 763.286C69.0892 773.548 87.1135 779.805 110.704 782.058L171.934 788.44V803.458C171.934 813.97 167.825 822.355 159.608 828.613C151.391 835.12 140.259 838.374 126.21 838.374C112.427 838.374 100.897 835.37 91.6196 829.363C82.6074 823.356 76.3785 814.721 72.9326 803.458L45.8962 812.469C51.1975 828.988 60.8723 841.878 74.9206 851.139C89.234 860.4 106.596 865.03 127.005 865.03C150.596 865.03 168.885 859.274 181.873 847.76C195.127 836.497 201.753 821.104 201.753 801.581V674.681H174.319ZM171.934 764.412L110.307 757.654C97.0534 756.152 86.981 752.648 80.0893 747.142C73.1977 741.886 69.7519 734.877 69.7519 726.117C69.7519 717.357 73.0652 710.348 79.6917 705.092C86.5834 699.836 96.3907 697.208 109.114 697.208C123.692 697.208 135.62 699.961 144.897 705.468C154.174 710.974 160.934 718.358 165.175 727.619C169.681 737.13 171.934 747.392 171.934 758.405V764.412Z" fill="#EBE3DB"></path>
<path d="M249.244 674.681L251.63 708.471C257.196 696.958 265.413 687.947 276.281 681.439C287.148 675.182 300.932 674.305 317.631 674.305C331.944 674.305 344.137 674.181 354.209 678.436C364.282 682.691 372.101 688.698 377.667 696.457C382.969 704.467 385.619 713.853 385.619 724.615C385.619 740.384 379.39 753.274 366.932 763.286C354.474 773.548 336.45 779.805 312.86 782.058L251.63 788.44V803.458C251.63 813.97 255.739 822.355 263.955 828.613C272.172 835.12 283.305 838.374 297.353 838.374C311.137 838.374 322.667 835.37 331.944 829.363C340.956 823.356 347.185 814.721 350.631 803.458L377.667 812.469C372.366 828.988 362.691 841.878 348.643 851.139C334.33 860.4 316.968 865.03 296.558 865.03C272.968 865.03 254.678 859.274 241.69 847.76C228.437 836.497 221.81 821.104 221.81 801.581V674.681H249.244ZM251.63 764.412L313.257 757.654C326.51 756.152 336.583 752.648 343.474 747.142C350.366 741.886 353.812 734.877 353.812 726.117C353.812 717.357 350.498 710.348 343.872 705.092C336.98 699.836 327.173 697.208 314.45 697.208C299.871 697.208 287.944 699.961 278.666 705.468C269.389 710.974 262.63 718.358 258.389 727.619C253.883 737.13 251.63 747.392 251.63 758.405V764.412Z" fill="#EBE3DB"></path>
<path d="M535.505 655.325L533.119 619.315C527.553 630.828 519.336 639.839 508.468 646.346C497.601 652.604 483.817 657.953 467.119 657.953C452.805 657.953 440.612 653.605 430.54 649.35C420.467 645.095 412.648 639.088 407.082 631.329C401.781 623.319 399.13 613.933 399.13 603.171C399.13 587.402 405.359 574.512 417.817 564.5C430.275 554.238 448.299 547.981 471.89 545.728L533.119 539.345V524.328C533.119 513.815 529.011 505.431 520.794 499.173C512.577 492.666 501.444 489.412 487.396 489.412C473.613 489.412 462.082 492.415 452.805 498.422C443.793 504.429 437.564 513.065 434.118 524.328L407.082 515.317C412.383 498.798 422.058 485.908 436.106 476.647C450.42 467.386 467.781 462.755 488.191 462.755C511.782 462.755 530.071 468.512 543.059 480.026C556.312 491.289 562.939 506.682 562.939 526.205V655.325H535.505ZM533.119 563.374L471.492 570.132C458.239 571.633 448.167 575.138 441.275 580.644C434.383 585.9 430.937 592.908 430.937 601.669C430.937 610.429 434.251 617.437 440.877 622.694C447.769 627.95 457.576 630.578 470.299 630.578C484.878 630.578 496.806 627.825 506.083 622.318C515.36 616.812 522.119 609.428 526.36 600.167C530.866 590.656 533.119 580.394 533.119 569.381V563.374Z" fill="#EBE3DB"></path>
<path d="M610.43 655.325L612.816 619.315C618.382 630.828 626.599 639.839 637.466 646.346C648.334 652.604 662.117 657.953 678.816 657.953C693.13 657.953 705.323 653.605 715.395 649.35C725.467 645.095 733.287 639.088 738.853 631.329C744.154 623.319 746.805 613.933 746.805 603.171C746.805 587.402 740.576 574.512 728.118 564.5C715.66 554.238 697.636 547.981 674.045 545.728L612.816 539.345V524.328C612.816 513.815 616.924 505.431 625.141 499.173C633.358 492.666 644.491 489.412 658.539 489.412C672.322 489.412 683.852 492.415 693.13 498.422C702.142 504.429 708.371 513.065 711.817 524.328L738.853 515.317C733.552 498.798 723.877 485.908 709.829 476.647C695.515 467.386 678.154 462.755 657.744 462.755C634.153 462.755 615.864 468.512 602.876 480.026C589.623 491.289 582.996 506.682 582.996 526.205V655.325H610.43ZM612.816 563.374L674.443 570.132C687.696 571.633 697.768 575.138 704.66 580.644C711.552 585.9 714.997 592.908 714.997 601.669C714.997 610.429 711.684 617.437 705.057 622.694C698.166 627.95 688.358 630.578 675.635 630.578C661.057 630.578 649.129 627.825 639.852 622.318C630.575 616.812 623.816 609.428 619.575 600.167C615.069 590.656 612.816 580.394 612.816 569.381V563.374Z" fill="#EBE3DB"></path>
<path d="M535.505 674.681L533.119 708.471C527.553 696.958 519.336 687.947 508.468 681.439C497.601 675.182 483.817 674.305 467.119 674.305C452.805 674.305 440.612 674.181 430.54 678.436C420.467 682.691 412.648 688.698 407.082 696.457C401.781 704.467 399.13 713.853 399.13 724.615C399.13 740.384 405.359 753.274 417.817 763.286C430.275 773.548 448.299 779.805 471.89 782.058L533.119 788.44V803.458C533.119 813.97 529.011 822.355 520.794 828.613C512.577 835.12 501.444 838.374 487.396 838.374C473.613 838.374 462.082 835.37 452.805 829.363C443.793 823.356 437.564 814.721 434.118 803.458L407.082 812.469C412.383 828.988 422.058 841.878 436.106 851.139C450.42 860.4 467.781 865.03 488.191 865.03C511.782 865.03 530.071 859.274 543.059 847.76C556.312 836.497 562.939 821.104 562.939 801.581V674.681H535.505ZM533.119 764.412L471.492 757.654C458.239 756.152 448.167 752.648 441.275 747.142C434.383 741.886 430.937 734.877 430.937 726.117C430.937 717.357 434.251 710.348 440.877 705.092C447.769 699.836 457.576 697.208 470.299 697.208C484.878 697.208 496.806 699.961 506.083 705.468C515.36 710.974 522.119 718.358 526.36 727.619C530.866 737.13 533.119 747.392 533.119 758.405V764.412Z" fill="#EBE3DB"></path>
<path d="M610.43 674.681L612.816 708.471C618.382 696.958 626.599 687.947 637.466 681.439C648.334 675.182 662.117 674.305 678.816 674.305C693.13 674.305 705.323 674.181 715.395 678.436C725.467 682.691 733.287 688.698 738.853 696.457C744.154 704.467 746.805 713.853 746.805 724.615C746.805 740.384 740.576 753.274 728.118 763.286C715.66 773.548 697.636 779.805 674.045 782.058L612.816 788.44V803.458C612.816 813.97 616.924 822.355 625.141 828.613C633.358 835.12 644.491 838.374 658.539 838.374C672.322 838.374 683.852 835.37 693.13 829.363C702.142 823.356 708.371 814.721 711.817 803.458L738.853 812.469C733.552 828.988 723.877 841.878 709.829 851.139C695.515 860.4 678.154 865.03 657.744 865.03C634.153 865.03 615.864 859.274 602.876 847.76C589.623 836.497 582.996 821.104 582.996 801.581V674.681H610.43ZM612.816 764.412L674.443 757.654C687.696 756.152 697.768 752.648 704.66 747.142C711.552 741.886 714.997 734.877 714.997 726.117C714.997 717.357 711.684 710.348 705.057 705.092C698.166 699.836 688.358 697.208 675.635 697.208C661.057 697.208 649.129 699.961 639.852 705.468C630.575 710.974 623.816 718.358 619.575 727.619C615.069 737.13 612.816 747.392 612.816 758.405V764.412Z" fill="#EBE3DB"></path>
<path d="M896.69 655.325L894.305 619.315C888.738 630.828 880.521 639.839 869.654 646.346C858.786 652.604 845.003 657.953 828.304 657.953C813.991 657.953 801.798 653.605 791.725 649.35C781.653 645.095 773.834 639.088 768.267 631.329C762.966 623.319 760.315 613.933 760.315 603.171C760.315 587.402 766.544 574.512 779.002 564.5C791.46 554.238 809.485 547.981 833.075 545.728L894.305 539.345V524.328C894.305 513.815 890.196 505.431 881.979 499.173C873.762 492.666 862.63 489.412 848.581 489.412C834.798 489.412 823.268 492.415 813.991 498.422C804.979 504.429 798.75 513.065 795.304 524.328L768.267 515.317C773.569 498.798 783.243 485.908 797.292 476.647C811.605 467.386 828.967 462.755 849.377 462.755C872.967 462.755 891.256 468.512 904.245 480.026C917.498 491.289 924.124 506.682 924.124 526.205V655.325H896.69ZM894.305 563.374L832.678 570.132C819.424 571.633 809.352 575.138 802.46 580.644C795.569 585.9 792.123 592.908 792.123 601.669C792.123 610.429 795.436 617.437 802.063 622.694C808.954 627.95 818.762 630.578 831.485 630.578C846.063 630.578 857.991 627.825 867.268 622.318C876.545 616.812 883.305 609.428 887.546 600.167C892.052 590.656 894.305 580.394 894.305 569.381V563.374Z" fill="#EBE3DB"></path>
<path d="M971.616 655.325L974.001 619.315C979.567 630.828 987.784 639.839 998.652 646.346C1009.52 652.604 1023.3 657.953 1040 657.953C1054.32 657.953 1066.51 653.605 1076.58 649.35C1086.65 645.095 1094.47 639.088 1100.04 631.329C1105.34 623.319 1107.99 613.933 1107.99 603.171C1107.99 587.402 1101.76 574.512 1089.3 564.5C1076.85 554.238 1058.82 547.981 1035.23 545.728L974.001 539.345V524.328C974.001 513.815 978.11 505.431 986.327 499.173C994.544 492.666 1005.68 489.412 1019.72 489.412C1033.51 489.412 1045.04 492.415 1054.32 498.422C1063.33 504.429 1069.56 513.065 1073 524.328L1100.04 515.317C1094.74 498.798 1085.06 485.908 1071.01 476.647C1056.7 467.386 1039.34 462.755 1018.93 462.755C995.339 462.755 977.049 468.512 964.061 480.026C950.808 491.289 944.182 506.682 944.182 526.205V655.325H971.616ZM974.001 563.374L1035.63 570.132C1048.88 571.633 1058.95 575.138 1065.85 580.644C1072.74 585.9 1076.18 592.908 1076.18 601.669C1076.18 610.429 1072.87 617.437 1066.24 622.694C1059.35 627.95 1049.54 630.578 1036.82 630.578C1022.24 630.578 1010.31 627.825 1001.04 622.318C991.76 616.812 985.001 609.428 980.76 600.167C976.254 590.656 974.001 580.394 974.001 569.381V563.374Z" fill="#EBE3DB"></path>
<path d="M896.69 674.681L894.305 708.471C888.738 696.958 880.521 687.947 869.654 681.439C858.786 675.182 845.003 674.305 828.304 674.305C813.991 674.305 801.798 674.181 791.725 678.436C781.653 682.691 773.834 688.698 768.267 696.457C762.966 704.467 760.315 713.853 760.315 724.615C760.315 740.384 766.544 753.274 779.002 763.286C791.46 773.548 809.485 779.805 833.075 782.058L894.305 788.44V803.458C894.305 813.97 890.196 822.355 881.979 828.613C873.762 835.12 862.63 838.374 848.581 838.374C834.798 838.374 823.268 835.37 813.991 829.363C804.979 823.356 798.75 814.721 795.304 803.458L768.267 812.469C773.569 828.988 783.243 841.878 797.292 851.139C811.605 860.4 828.967 865.03 849.377 865.03C872.967 865.03 891.256 859.274 904.245 847.76C917.498 836.497 924.124 821.104 924.124 801.581V674.681H896.69ZM894.305 764.412L832.678 757.654C819.424 756.152 809.352 752.648 802.46 747.142C795.569 741.886 792.123 734.877 792.123 726.117C792.123 717.357 795.436 710.348 802.063 705.092C808.954 699.836 818.762 697.208 831.485 697.208C846.063 697.208 857.991 699.961 867.268 705.468C876.545 710.974 883.305 718.358 887.546 727.619C892.052 737.13 894.305 747.392 894.305 758.405V764.412Z" fill="#EBE3DB"></path>
<path d="M971.616 674.681L974.001 708.471C979.567 696.958 987.784 687.947 998.652 681.439C1009.52 675.182 1023.3 674.305 1040 674.305C1054.32 674.305 1066.51 674.181 1076.58 678.436C1086.65 682.691 1094.47 688.698 1100.04 696.457C1105.34 704.467 1107.99 713.853 1107.99 724.615C1107.99 740.384 1101.76 753.274 1089.3 763.286C1076.85 773.548 1058.82 779.805 1035.23 782.058L974.001 788.44V803.458C974.001 813.97 978.11 822.355 986.327 828.613C994.544 835.12 1005.68 838.374 1019.72 838.374C1033.51 838.374 1045.04 835.37 1054.32 829.363C1063.33 823.356 1069.56 814.721 1073 803.458L1100.04 812.469C1094.74 828.988 1085.06 841.878 1071.01 851.139C1056.7 860.4 1039.34 865.03 1018.93 865.03C995.339 865.03 977.049 859.274 964.061 847.76C950.808 836.497 944.182 821.104 944.182 801.581V674.681H971.616ZM974.001 764.412L1035.63 757.654C1048.88 756.152 1058.95 752.648 1065.85 747.142C1072.74 741.886 1076.18 734.877 1076.18 726.117C1076.18 717.357 1072.87 710.348 1066.24 705.092C1059.35 699.836 1049.54 697.208 1036.82 697.208C1022.24 697.208 1010.31 699.961 1001.04 705.468C991.76 710.974 985.001 718.358 980.76 727.619C976.254 737.13 974.001 747.392 974.001 758.405V764.412Z" fill="#EBE3DB"></path>
<path d="M1257.88 655.325L1255.49 619.315C1249.92 630.828 1241.71 639.839 1230.84 646.346C1219.97 652.604 1206.19 657.953 1189.49 657.953C1175.18 657.953 1162.98 653.605 1152.91 649.35C1142.84 645.095 1135.02 639.088 1129.45 631.329C1124.15 623.319 1121.5 613.933 1121.5 603.171C1121.5 587.402 1127.73 574.512 1140.19 564.5C1152.65 554.238 1170.67 547.981 1194.26 545.728L1255.49 539.345V524.328C1255.49 513.815 1251.38 505.431 1243.16 499.173C1234.95 492.666 1223.82 489.412 1209.77 489.412C1195.98 489.412 1184.45 492.415 1175.18 498.422C1166.16 504.429 1159.94 513.065 1156.49 524.328L1129.45 515.317C1134.75 498.798 1144.43 485.908 1158.48 476.647C1172.79 467.386 1190.15 462.755 1210.56 462.755C1234.15 462.755 1252.44 468.512 1265.43 480.026C1278.68 491.289 1285.31 506.682 1285.31 526.205V655.325H1257.88ZM1255.49 563.374L1193.86 570.132C1180.61 571.633 1170.54 575.138 1163.65 580.644C1156.75 585.9 1153.31 592.908 1153.31 601.669C1153.31 610.429 1156.62 617.437 1163.25 622.694C1170.14 627.95 1179.95 630.578 1192.67 630.578C1207.25 630.578 1219.18 627.825 1228.45 622.318C1237.73 616.812 1244.49 609.428 1248.73 600.167C1253.24 590.656 1255.49 580.394 1255.49 569.381V563.374Z" fill="#EBE3DB"></path>
<path d="M1332.8 655.325L1335.19 619.315C1340.75 630.828 1348.97 639.839 1359.84 646.346C1370.71 652.604 1384.49 657.953 1401.19 657.953C1415.5 657.953 1427.69 653.605 1437.77 649.35C1447.84 645.095 1455.66 639.088 1461.22 631.329C1466.53 623.319 1469.18 613.933 1469.18 603.171C1469.18 587.402 1462.95 574.512 1450.49 564.5C1438.03 554.238 1420.01 547.981 1396.42 545.728L1335.19 539.345V524.328C1335.19 513.815 1339.3 505.431 1347.51 499.173C1355.73 492.666 1366.86 489.412 1380.91 489.412C1394.69 489.412 1406.22 492.415 1415.5 498.422C1424.51 504.429 1430.74 513.065 1434.19 524.328L1461.22 515.317C1455.92 498.798 1446.25 485.908 1432.2 476.647C1417.89 467.386 1400.52 462.755 1380.11 462.755C1356.52 462.755 1338.23 468.512 1325.25 480.026C1311.99 491.289 1305.37 506.682 1305.37 526.205V655.325H1332.8ZM1335.19 563.374L1396.81 570.132C1410.07 571.633 1420.14 575.138 1427.03 580.644C1433.92 585.9 1437.37 592.908 1437.37 601.669C1437.37 610.429 1434.06 617.437 1427.43 622.694C1420.54 627.95 1410.73 630.578 1398.01 630.578C1383.43 630.578 1371.5 627.825 1362.22 622.318C1352.95 616.812 1346.19 609.428 1341.95 600.167C1337.44 590.656 1335.19 580.394 1335.19 569.381V563.374Z" fill="#EBE3DB"></path>
<path d="M1257.88 674.681L1255.49 708.471C1249.92 696.958 1241.71 687.947 1230.84 681.439C1219.97 675.182 1206.19 674.305 1189.49 674.305C1175.18 674.305 1162.98 674.181 1152.91 678.436C1142.84 682.691 1135.02 688.698 1129.45 696.457C1124.15 704.467 1121.5 713.853 1121.5 724.615C1121.5 740.384 1127.73 753.274 1140.19 763.286C1152.65 773.548 1170.67 779.805 1194.26 782.058L1255.49 788.44V803.458C1255.49 813.97 1251.38 822.355 1243.16 828.613C1234.95 835.12 1223.82 838.374 1209.77 838.374C1195.98 838.374 1184.45 835.37 1175.18 829.363C1166.16 823.356 1159.94 814.721 1156.49 803.458L1129.45 812.469C1134.75 828.988 1144.43 841.878 1158.48 851.139C1172.79 860.4 1190.15 865.03 1210.56 865.03C1234.15 865.03 1252.44 859.274 1265.43 847.76C1278.68 836.497 1285.31 821.104 1285.31 801.581V674.681H1257.88ZM1255.49 764.412L1193.86 757.654C1180.61 756.152 1170.54 752.648 1163.65 747.142C1156.75 741.886 1153.31 734.877 1153.31 726.117C1153.31 717.357 1156.62 710.348 1163.25 705.092C1170.14 699.836 1179.95 697.208 1192.67 697.208C1207.25 697.208 1219.18 699.961 1228.45 705.468C1237.73 710.974 1244.49 718.358 1248.73 727.619C1253.24 737.13 1255.49 747.392 1255.49 758.405V764.412Z" fill="#EBE3DB"></path>
<path d="M1332.8 674.681L1335.19 708.471C1340.75 696.958 1348.97 687.947 1359.84 681.439C1370.71 675.182 1384.49 674.305 1401.19 674.305C1415.5 674.305 1427.69 674.181 1437.77 678.436C1447.84 682.691 1455.66 688.698 1461.22 696.457C1466.53 704.467 1469.18 713.853 1469.18 724.615C1469.18 740.384 1462.95 753.274 1450.49 763.286C1438.03 773.548 1420.01 779.805 1396.42 782.058L1335.19 788.44V803.458C1335.19 813.97 1339.3 822.355 1347.51 828.613C1355.73 835.12 1366.86 838.374 1380.91 838.374C1394.69 838.374 1406.22 835.37 1415.5 829.363C1424.51 823.356 1430.74 814.721 1434.19 803.458L1461.22 812.469C1455.92 828.988 1446.25 841.878 1432.2 851.139C1417.89 860.4 1400.52 865.03 1380.11 865.03C1356.52 865.03 1338.23 859.274 1325.25 847.76C1311.99 836.497 1305.37 821.104 1305.37 801.581V674.681H1332.8ZM1335.19 764.412L1396.81 757.654C1410.07 756.152 1420.14 752.648 1427.03 747.142C1433.92 741.886 1437.37 734.877 1437.37 726.117C1437.37 717.357 1434.06 710.348 1427.43 705.092C1420.54 699.836 1410.73 697.208 1398.01 697.208C1383.43 697.208 1371.5 699.961 1362.22 705.468C1352.95 710.974 1346.19 718.358 1341.95 727.619C1337.44 737.13 1335.19 747.392 1335.19 758.405V764.412Z" fill="#EBE3DB"></path>
</svg>